<svg xmlns="http://www.w3.org/2000/svg" version="1.1" xmlns:xlink="http://www.w3.org/1999/xlink" xmlns:svgjs="http://svgjs.dev/svgjs" width="2000" height="1500" viewBox="0 0 2000 1500"><rect width="2000" height="1500" fill="#35185a"></rect><g transform="matrix(0.75,0,0,0.75,250.60728744939274,0.6072874493926861)"><svg viewBox="0 0 247 247" data-background-color="#35185a" preserveAspectRatio="xMidYMid meet" height="2000" width="2000" xmlns="http://www.w3.org/2000/svg" xmlns:xlink="http://www.w3.org/1999/xlink"><g id="tight-bounds" transform="matrix(1,0,0,1,-0.09999999999999432,-0.09999999999999432)"><svg viewBox="0 0 247.2 247.2" height="247.2" width="247.2"><g><svg viewBox="0 0 247.20000000000002 247.20000000000002" height="247.2" width="247.2"><g><svg viewBox="0 0 247.20000000000002 247.20000000000002" height="247.20000000000002" width="247.20000000000002"><g id="textblocktransform"><svg viewBox="0 0 247.20000000000002 247.20000000000002" height="247.20000000000002" width="247.20000000000002" id="textblock"><g><svg viewBox="0 0 247.20000000000002 247.20000000000002" height="247.20000000000002" width="247.20000000000002"><g transform="matrix(1,0,0,1,0,0)"><svg width="247.20000000000002" viewBox="0 -50 43.75 43.75" height="247.20000000000002" data-palette-color="#a437db"><path d="M12.5-6.25L0-6.25 0-50 37.5-50 37.5-43.75 43.75-43.75 43.75-25 31.25-25 31.25-18.75 37.5-18.75 37.5-12.5 43.75-12.5 43.75-6.25 25-6.25 25-12.5 18.75-12.5 18.75-18.75 12.5-18.75 12.5-6.25ZM12.5-43.75L12.5-25 25-25 25-31.25 31.25-31.25 31.25-43.75 12.5-43.75Z" opacity="1" transform="matrix(1,0,0,1,0,0)" fill="#a437db" class="wordmark-text-0" data-fill-palette-color="primary" id="text-0"></path></svg></g></svg></g></svg></g></svg></g></svg></g><defs></defs></svg><rect width="247.2" height="247.2" fill="none" stroke="none" visibility="hidden"></rect></g></svg></g></svg>